<?xml version="1.0" standalone="no"?>
<!DOCTYPE svg PUBLIC "-//W3C//DTD SVG 20010904//EN"
 "http://www.w3.org/TR/2001/REC-SVG-20010904/DTD/svg10.dtd">
<svg version="1.0" xmlns="http://www.w3.org/2000/svg"
 width="306.000000pt" height="309.000000pt" viewBox="0 0 306.000000 309.000000"
 preserveAspectRatio="xMidYMid meet">
<metadata>
Created by potrace 1.16, written by Peter Selinger 2001-2019
</metadata>
<g transform="translate(0.000000,309.000000) scale(0.100000,-0.100000)"
fill="#000000" stroke="none">
<path d="M1647 2550 c-21 -12 -65 -49 -98 -83 -58 -61 -59 -63 -59 -118 0 -38
5 -61 15 -69 8 -7 15 -19 15 -26 0 -8 9 -19 20 -26 19 -12 20 -20 14 -99 -6
-84 -6 -89 25 -145 31 -58 42 -126 21 -139 -5 -3 -10 -14 -10 -24 0 -13 -15
-19 -70 -29 -90 -15 -144 -46 -173 -97 -7 -11 -15 -93 -18 -185 -4 -91 -13
-191 -20 -223 l-12 -58 -46 7 c-84 11 -111 32 -140 104 -15 36 -29 70 -32 75
-4 6 -10 35 -14 65 -7 57 -32 148 -46 165 -10 14 -2 197 11 230 5 14 10 59 10
99 0 66 -2 75 -27 98 -16 14 -39 29 -53 33 -14 4 -31 13 -39 19 -8 6 -28 15
-45 21 l-31 10 -3 185 c-2 169 -4 186 -22 201 -20 17 -63 15 -78 -5 -17 -20
-20 -65 -6 -77 11 -9 14 -43 14 -134 0 -68 -3 -130 -6 -139 -7 -18 -64 -22
-64 -4 0 10 -21 58 -65 153 -8 17 -26 57 -39 90 -24 58 -25 60 -62 60 -28 0
-41 -6 -57 -27 l-20 -27 42 -47 c22 -26 41 -51 41 -56 0 -5 9 -28 20 -50 11
-23 20 -48 20 -55 0 -7 4 -13 9 -13 5 0 11 -12 14 -27 5 -28 -3 -42 -84 -136
-31 -35 -38 -52 -43 -102 -13 -142 -13 -149 6 -177 10 -14 18 -30 18 -35 0 -5
14 -22 30 -38 17 -16 30 -35 30 -42 0 -8 11 -36 25 -63 14 -27 25 -60 25 -74
0 -14 4 -27 9 -30 4 -3 14 -34 20 -68 7 -35 17 -71 22 -80 15 -28 10 -67 -8
-76 -10 -5 -43 -15 -73 -22 -30 -7 -59 -16 -65 -20 -5 -4 -25 -11 -43 -15 -63
-13 -126 -89 -92 -110 6 -4 105 -6 220 -5 206 1 210 0 210 -20 0 -22 21 -61
54 -97 14 -17 30 -23 62 -23 28 0 60 -9 88 -25 63 -35 104 -33 119 7 3 9 16
18 29 20 15 2 23 10 23 23 0 17 -12 26 -75 55 -22 10 -25 57 -4 62 9 1 68 2
130 0 l114 -3 0 -32 c0 -57 19 -101 64 -152 43 -48 48 -50 108 -55 76 -6 76
-5 77 -176 l1 -120 33 -30 c44 -42 121 -64 224 -64 62 0 88 4 99 15 9 8 24 15
33 15 10 0 37 20 60 45 35 38 41 51 41 89 0 25 5 48 10 51 6 3 10 35 10 71 0
57 2 65 18 62 14 -3 18 -18 24 -80 7 -78 20 -109 67 -161 24 -26 27 -27 130
-26 121 1 152 13 182 69 10 19 22 40 27 45 17 21 36 107 48 225 3 30 9 64 15
75 11 24 31 228 30 305 -1 30 -3 105 -7 165 -5 103 -4 112 15 129 12 11 21 25
21 32 0 8 8 10 22 6 22 -5 22 3 3 51 -5 11 -3 17 7 17 19 0 68 58 68 80 0 21
-20 40 -42 40 -12 0 -18 7 -18 21 0 15 -5 19 -18 15 -14 -5 -21 2 -30 27 -6
18 -37 57 -67 86 -34 33 -55 62 -55 75 0 12 -5 27 -12 34 -9 9 -7 19 7 45 26
49 17 148 -18 202 -55 83 -56 85 -93 85 -29 0 -45 10 -88 50 -29 28 -55 50
-58 50 -3 0 -23 16 -44 35 -21 19 -45 35 -54 35 -9 0 -21 5 -28 12 -9 9 -77
13 -235 15 -209 3 -224 2 -260 -17z m-780 -507 c7 -9 22 -21 35 -27 28 -14 42
-70 27 -108 -18 -44 -134 -69 -220 -47 -50 13 -50 13 -44 47 7 36 -14 72 -42
72 -33 0 -3 25 33 28 39 3 74 25 74 47 0 18 122 7 137 -12z m1483 7 c12 -12
18 -25 15 -30 -4 -6 -56 -10 -116 -10 -115 0 -246 -21 -289 -47 -14 -8 -36
-29 -48 -47 -20 -29 -22 -45 -22 -148 0 -112 1 -118 35 -187 27 -54 45 -77 78
-98 104 -66 236 -71 429 -16 97 27 104 14 54 -102 -20 -48 -32 -63 -58 -74
-106 -43 -258 -60 -393 -42 -112 15 -194 56 -281 140 l-62 60 -4 143 c-3 103
-1 150 8 169 7 14 16 49 20 78 5 43 13 57 39 78 42 34 137 72 205 84 30 5 75
13 100 19 43 10 114 23 210 40 25 4 48 8 53 9 4 0 16 -8 27 -19z m50 -146 c76
-17 133 -52 160 -97 25 -41 26 -86 3 -93 -10 -3 -27 -10 -38 -14 -11 -5 -56
-11 -100 -14 -44 -3 -110 -9 -146 -12 -77 -8 -153 13 -188 50 -29 31 -60 116
-51 141 5 15 25 23 91 36 108 21 188 22 269 3z m-830 -229 c15 -19 6 -110 -15
-142 -12 -18 -13 -66 -7 -290 4 -147 5 -272 0 -277 -4 -6 -23 -5 -46 2 -64 19
-67 36 -66 347 0 292 8 349 47 365 34 14 73 11 87 -5z m158 -420 c16 -13 50
-31 75 -40 25 -8 77 -33 114 -54 66 -37 77 -48 234 -239 9 -11 -3 -12 -67 -7
-93 7 -126 -5 -134 -50 -6 -37 -26 -43 -147 -44 l-93 -1 -17 38 c-13 29 -17
76 -21 215 -5 223 -2 231 56 182z m645 -98 c-45 -69 -90 -121 -121 -139 l-29
-17 -37 49 c-20 27 -55 65 -77 84 -21 20 -39 40 -39 46 0 6 35 11 83 11 45 1
116 5 157 8 41 4 78 5 82 3 4 -2 -5 -22 -19 -45z m128 -69 c-7 -40 -20 -98
-28 -128 -8 -30 -15 -66 -16 -79 -2 -26 -16 -32 -97 -44 l-45 -7 28 25 c33 29
37 60 6 52 -42 -11 -68 15 -26 27 24 7 60 50 134 162 27 40 50 70 52 68 2 -2
-1 -37 -8 -76z"/>
</g>
</svg>
