<?xml version="1.0" standalone="no"?>
<!DOCTYPE svg PUBLIC "-//W3C//DTD SVG 20010904//EN"
 "http://www.w3.org/TR/2001/REC-SVG-20010904/DTD/svg10.dtd">
<svg version="1.0" xmlns="http://www.w3.org/2000/svg"
 width="340.000000pt" height="425.000000pt" viewBox="0 0 340.000000 425.000000"
 preserveAspectRatio="xMidYMid meet">
<metadata>
Created by potrace 1.16, written by Peter Selinger 2001-2019
</metadata>
<g transform="translate(0.000000,425.000000) scale(0.100000,-0.100000)"
fill="#000000" stroke="none">
<path d="M0 2125 l0 -2125 486 0 c439 0 537 5 447 23 -75 15 -90 22 -118 51
-36 37 -68 94 -62 109 2 7 20 -13 40 -44 34 -54 82 -89 121 -89 8 0 32 -10 53
-22 37 -22 48 -23 301 -25 220 -1 262 1 262 13 0 8 6 14 13 14 6 1 44 23 82
51 39 27 82 57 96 66 21 13 30 33 43 84 9 37 16 81 16 98 0 19 5 31 13 31 22
0 11 -113 -16 -169 -15 -31 -59 -81 -71 -81 -5 0 -16 -8 -25 -18 -22 -26 -97
-72 -116 -72 -8 0 -15 -4 -15 -10 0 -7 315 -10 925 -10 l925 0 0 2125 0 2125
-1700 0 -1700 0 0 -2125z m1870 1915 c0 -6 -6 -13 -12 -15 -23 -8 -538 -10
-538 -2 0 4 11 7 25 7 14 0 25 5 25 10 0 6 90 10 250 10 165 0 250 -4 250 -10z
m213 -270 c159 -54 253 -109 342 -199 44 -45 82 -86 83 -91 5 -13 2 -13 -298
-14 -265 -1 -267 -1 -525 -58 -149 -32 -238 -103 -285 -226 -26 -68 -36 -272
-21 -414 20 -183 105 -384 195 -464 53 -48 156 -105 228 -128 24 -7 63 -19 88
-27 58 -18 341 -19 425 -1 33 6 117 23 187 37 70 13 167 38 215 54 49 16 91
26 95 22 5 -4 9 -180 10 -391 3 -389 -3 -493 -37 -625 -8 -33 -15 -81 -15
-107 0 -65 -28 -185 -64 -278 -18 -48 -21 -76 -21 -220 0 -184 -12 -241 -52
-259 -36 -16 -383 -15 -387 1 -2 7 -9 33 -16 58 -6 25 -16 53 -21 62 -12 24
-11 105 1 113 5 3 10 40 10 81 0 68 2 74 20 74 28 0 124 50 203 104 69 49 84
63 89 86 3 13 -34 15 -277 15 -265 0 -406 10 -490 35 -30 10 -98 -5 -144 -30
-28 -14 -64 -87 -57 -114 3 -11 -1 -66 -9 -122 -10 -75 -12 -124 -5 -190 5
-49 10 -114 10 -145 0 -61 -12 -78 -100 -136 -75 -49 -107 -58 -215 -58 -107
0 -164 13 -228 52 -35 22 -37 26 -37 76 0 28 -9 104 -19 167 -10 63 -19 169
-20 234 -1 66 -5 124 -8 129 -31 51 -45 514 -38 1297 l6 675 24 65 c14 36 31
110 40 165 14 95 23 141 43 230 10 45 41 113 59 133 7 7 15 29 18 50 12 72 16
82 47 118 33 38 190 164 204 164 5 1 25 8 45 18 32 15 69 17 325 14 l289 -2
88 -30z m394 -525 c43 -13 103 -29 133 -36 143 -29 305 -149 355 -263 31 -70
31 -98 3 -130 -24 -27 -132 -72 -208 -87 -76 -14 -438 -39 -571 -39 -103 0
-132 3 -165 19 -22 11 -54 23 -70 27 -39 10 -136 108 -166 170 -14 27 -31 74
-38 104 -7 30 -20 76 -30 101 -10 26 -15 51 -11 56 7 11 68 27 171 44 41 7
125 23 185 35 158 32 308 32 412 -1z m-1804 -532 c6 -12 -19 -261 -33 -320
-14 -62 -7 -849 9 -1053 5 -69 13 -164 17 -212 l7 -88 -87 0 c-84 0 -90 2
-157 40 -52 31 -70 47 -75 68 -3 15 -8 36 -10 47 -11 40 -24 174 -34 345 -11
171 -8 273 20 775 8 139 28 287 44 327 17 38 67 63 140 69 116 9 155 9 159 2z"/>
</g>
</svg>
